<svg width="327" height="327" viewBox="0 0 327 327" fill="none" xmlns="http://www.w3.org/2000/svg">
<path d="M259.687 106.316H255.377V102H252.316V106.316H248V109.377H252.316V113.694H255.377V109.377H259.687V106.316Z" fill="#CAD2F9"/>
<path d="M197.333 214.813H193.52V211H190.813V214.813H187V217.514H190.813V221.327H193.52V217.514H197.333V214.813Z" fill="#CAD2F9"/>
<path d="M292.488 137.76H289.722V135H287.76V137.76H285V139.722H287.76V142.488H289.722V139.722H292.488V137.76Z" fill="#CAD2F9"/>
<path d="M106.936 93.7775H104.169V91.0176H102.207V93.7775H99.4473V95.7395H102.207V98.5059H104.169V95.7395H106.936V93.7775Z" fill="#CAD2F9"/>
<path d="M50.3332 123.813H46.5204V120H43.8128V123.813H40V126.52H43.8128V130.333H46.5204V126.52H50.3332V123.813Z" fill="#CAD2F9"/>
<path d="M127.495 181.766H124.728V179H122.766V181.766H120V183.728H122.766V186.495H124.728V183.728H127.495V181.766Z" fill="#CAD2F9"/>
<path d="M300.016 161.976C300.016 162.722 299.414 163.323 298.669 163.323C297.923 163.323 297.321 162.722 297.321 161.976C297.321 161.231 297.923 160.629 298.669 160.629C299.414 160.629 300.016 161.231 300.016 161.976Z" fill="#E2E6FF"/>
<path d="M115.114 194.557C115.114 195.97 113.97 197.114 112.557 197.114C111.145 197.114 110 195.97 110 194.557C110 193.145 111.145 192 112.557 192C113.97 192 115.114 193.145 115.114 194.557Z" fill="#E2E6FF"/>
<path d="M65.1143 113.557C65.1143 114.97 63.9698 116.114 62.5571 116.114C61.1445 116.114 60 114.97 60 113.557C60 112.145 61.1445 111 62.5571 111C63.9698 111 65.1143 112.145 65.1143 113.557Z" fill="#E2E6FF"/>
<path d="M260.114 160.557C260.114 161.97 258.97 163.114 257.557 163.114C256.145 163.114 255 161.97 255 160.557C255 159.145 256.145 158 257.557 158C258.97 158 260.114 159.145 260.114 160.557Z" fill="#E2E6FF"/>
<path d="M194.557 104.114C195.969 104.114 197.114 102.969 197.114 101.557C197.114 100.145 195.969 99 194.557 99C193.145 99 192 100.145 192 101.557C192 102.969 193.145 104.114 194.557 104.114Z" fill="#E2E6FF"/>
<path d="M90.6945 153.347C90.6945 154.093 90.0928 154.694 89.3472 154.694C88.6017 154.694 88 154.093 88 153.347C88 152.602 88.6017 152 89.3472 152C90.0928 152 90.6945 152.602 90.6945 153.347Z" fill="#E2E6FF"/>
<path d="M202.694 93.3472C202.694 94.0928 202.093 94.6945 201.347 94.6945C200.602 94.6945 200 94.0928 200 93.3472C200 92.6017 200.602 92 201.347 92C202.093 92 202.694 92.6017 202.694 93.3472Z" fill="#E2E6FF"/>
<path d="M126.891 85.3269C126.203 82.6524 127.814 79.927 130.489 79.2394L159.544 71.7697C162.218 71.0821 164.944 72.6928 165.631 75.3672L170.86 95.7059L165.533 97.0753L136.962 104.421C134.288 105.108 131.562 103.497 130.875 100.823L126.891 85.3269Z" fill="#C3CEE6"/>
<path d="M170.86 95.7059L165.533 97.0753L170.2 100.114C170.964 100.612 171.941 99.9104 171.714 99.0271L170.86 95.7059Z" fill="#C3CEE6"/>
<path d="M50.0408 159.091C52.0864 155.175 56.9194 153.658 60.8356 155.704L91.5114 171.727C95.4276 173.772 96.9441 178.605 94.8985 182.522L83.3724 204.588L77.2045 201.366L45.6057 184.861C41.6894 182.816 40.173 177.983 42.2186 174.067L50.0408 159.091Z" fill="#C3CEE6"/>
<path d="M83.3724 204.588L77.2045 201.366L79.1955 208.833C79.4305 209.714 80.6259 209.847 81.0481 209.038L83.3724 204.588Z" fill="#C3CEE6"/>
<path d="M213.504 207.932C211.569 201.594 215.138 194.886 221.477 192.951L278.625 175.505C284.964 173.569 291.671 177.139 293.606 183.478L305.998 224.067L294.983 227.43L237.372 245.018C231.034 246.953 224.327 243.383 222.391 237.044L213.504 207.932Z" fill="#C3CEE6"/>
<path d="M305.998 224.067L294.983 227.43L307.451 234.778C308.237 235.241 309.182 234.496 308.916 233.624L305.998 224.067Z" fill="#C3CEE6"/>
<path d="M152.367 83.1249L150.149 82L147.448 87.3105L142.131 84.6095L141 86.8265L146.317 89.5341L143.609 94.8446L145.827 95.976L148.534 90.659L153.851 93.3665L154.976 91.1495L149.665 88.4419L152.367 83.1249Z" fill="#EEF4FF"/>
<path d="M117.045 128.836C120.317 128.848 122.648 131.827 122.661 136.502C122.648 141.226 120.317 144.205 117.045 144.192C113.774 144.205 111.442 141.226 111.455 136.502C111.442 131.827 113.774 128.848 117.045 128.836ZM113.676 136.502C113.664 139.981 115.056 142.117 117.045 142.117C119.072 142.117 120.439 139.981 120.439 136.502C120.439 133.072 119.072 130.923 117.045 130.911C115.056 130.923 113.664 133.072 113.676 136.502ZM125.908 149.075V127.2H128.227V135.77H131.743V137.723H128.227V149.075H125.908ZM140.898 131.131C140.898 133.938 142.985 136.636 146.367 137.698L145.17 139.505C142.656 138.675 140.751 136.954 139.763 134.756C138.774 137.125 136.833 139.004 134.233 139.92L133.037 138.138C136.442 136.954 138.542 134.097 138.554 131.131V130.521H133.647V128.641H145.708V130.521H140.898V131.131ZM136.113 143.387V141.507H150.932V149.075H148.613V143.387H136.113ZM148.613 140.408V127.2H150.932V140.408H148.613ZM167.045 133.89C167.045 137.295 168.632 140.811 171.684 142.41L170.366 144.144C168.242 143.021 166.765 140.933 165.971 138.467C165.202 141.104 163.737 143.387 161.625 144.607L160.258 142.898C163.273 141.141 164.848 137.417 164.873 133.89V133.084H160.82V131.155H164.873V127.981H167.045V131.155H171.025V133.084H167.045V133.89ZM172.368 148.001V127.615H174.565V135.892H177.177V127.2H179.399V149.075H177.177V137.845H174.565V148.001H172.368ZM193.876 128.787V130.643H185.698V133.06H193.266V134.891H185.698V137.381C190.068 137.405 192.619 137.332 195.585 136.819L195.83 138.699C192.668 139.212 189.946 139.297 185.161 139.285H183.354V128.787H193.876ZM185.478 144.998C185.478 142.447 188.273 140.97 192.924 140.97C197.502 140.97 200.358 142.447 200.371 144.998C200.358 147.574 197.502 149.039 192.924 149.026C188.273 149.039 185.478 147.574 185.478 144.998ZM187.797 144.998C187.785 146.426 189.665 147.232 192.924 147.244C196.123 147.232 198.063 146.426 198.051 144.998C198.063 143.606 196.123 142.789 192.924 142.801C189.665 142.789 187.785 143.606 187.797 144.998ZM197.929 140.677V127.225H200.249V140.677H197.929ZM221.831 127.2V149.124H219.511V127.2H221.831ZM204.472 136.502C204.472 131.827 206.828 128.848 210.136 128.836C213.383 128.848 215.776 131.827 215.776 136.502C215.776 141.226 213.383 144.205 210.136 144.192C206.828 144.205 204.472 141.226 204.472 136.502ZM206.718 136.502C206.706 139.981 208.098 142.117 210.136 142.117C212.138 142.117 213.53 139.981 213.53 136.502C213.53 133.072 212.138 130.923 210.136 130.911C208.098 130.923 206.706 133.072 206.718 136.502ZM140.141 170.018V172.557H143.559V170.018H145.708V178.807H137.968V170.018H140.141ZM135.795 163.182C135.783 160.191 138.188 158.128 141.533 158.128C144.414 158.128 146.647 159.751 147.124 162.205H151.396V157.2H153.715V168.797H151.396V164.109H147.136C146.684 166.612 144.438 168.272 141.533 168.26C138.188 168.272 135.783 166.197 135.795 163.182ZM138.017 163.182C138.005 165.074 139.47 166.368 141.533 166.38C143.559 166.368 145 165.074 145 163.182C145 161.314 143.559 160.044 141.533 160.057C139.47 160.044 138.005 161.314 138.017 163.182ZM140.141 177H143.559V174.314H140.141V177ZM145.83 177.22C148.466 176.133 149.76 173.838 149.76 171.653V169.871H152.055V171.653C152.043 173.948 153.337 176.268 156.035 177.22L154.838 178.978C152.861 178.221 151.579 176.792 150.883 175.059C150.163 176.744 148.881 178.196 147.001 178.978L145.83 177.22ZM163.017 158.836C165.996 158.848 168.156 161.363 168.51 165.403H173.027V157.2H175.322V179.124H173.027V167.283H168.535C168.278 171.556 166.069 174.205 163.017 174.192C159.758 174.205 157.451 171.226 157.475 166.502C157.451 161.827 159.758 158.848 163.017 158.836ZM159.672 166.502C159.685 169.981 161.04 172.117 163.017 172.117C164.995 172.117 166.35 169.981 166.362 166.502C166.35 163.072 164.995 160.923 163.017 160.911C161.04 160.923 159.685 163.072 159.672 166.502ZM198.71 174.412V176.341H178.691V174.412H183.476V168.699C181.682 167.71 180.583 166.148 180.595 164.183C180.583 160.74 183.964 158.482 188.652 158.47C193.352 158.482 196.733 160.74 196.733 164.183C196.733 166.111 195.683 167.662 193.925 168.65V174.412H198.71ZM182.841 164.183C182.841 166.526 185.222 168.052 188.652 168.064C192.058 168.052 194.475 166.526 194.487 164.183C194.475 161.827 192.058 160.325 188.652 160.325C185.222 160.325 182.841 161.827 182.841 164.183ZM185.771 174.412H191.582V169.554C190.69 169.761 189.702 169.871 188.652 169.871C187.626 169.871 186.65 169.761 185.771 169.554V174.412ZM204.326 159.324L204.106 171.897H201.689L201.469 159.324H204.326ZM201.176 175.438C201.164 174.485 201.958 173.704 202.91 173.704C203.85 173.704 204.631 174.485 204.643 175.438C204.631 176.39 203.85 177.159 202.91 177.171C201.958 177.159 201.164 176.39 201.176 175.438Z" fill="#C3CEE6"/>
</svg>
