<svg width="45" height="32" viewBox="0 0 45 32" fill="none" xmlns="http://www.w3.org/2000/svg">
<path d="M31.8947 17.8018H30.4113C30.2146 17.8018 30.0259 17.7237 29.8868 17.5846C29.7477 17.4455 29.6695 17.2568 29.6695 17.0601C29.6695 16.8634 29.7477 16.6747 29.8868 16.5356C30.0259 16.3965 30.2146 16.3184 30.4113 16.3184H31.8947C32.0915 16.3184 32.2801 16.3965 32.4192 16.5356C32.5583 16.6747 32.6365 16.8634 32.6365 17.0601C32.6365 17.2568 32.5583 17.4455 32.4192 17.5846C32.2801 17.7237 32.0915 17.8018 31.8947 17.8018Z" fill="#F17547"/>
<path d="M42.2789 28.1859H38.81C38.3891 29.0737 37.725 29.8237 36.8948 30.3489C36.0645 30.8741 35.1022 31.1529 34.1198 31.1529C33.1374 31.1529 32.1751 30.8741 31.3449 30.3489C30.5146 29.8237 29.8505 29.0737 29.4296 28.1859H15.8162C15.3954 29.0737 14.7312 29.8237 13.901 30.3489C13.0707 30.8741 12.1085 31.1529 11.126 31.1529C10.1436 31.1529 9.18135 30.8741 8.35111 30.3489C7.52086 29.8237 6.85671 29.0737 6.43585 28.1859H0.741737C0.545017 28.1859 0.356353 28.1078 0.21725 27.9687C0.0781481 27.8296 1.75138e-06 27.6409 1.75138e-06 27.4442V0.741735C1.75138e-06 0.545015 0.0781481 0.356352 0.21725 0.217249C0.356353 0.078147 0.545017 0 0.741737 0H27.4442C27.6409 0 27.8296 0.078147 27.9687 0.217249C28.1078 0.356352 28.1859 0.545015 28.1859 0.741735V2.96694H32.6236C33.4307 2.97082 34.2147 3.23663 34.8578 3.72439C35.5008 4.21215 35.9681 4.8955 36.1895 5.67168L38.4894 13.7066C39.8094 14.156 40.956 15.0069 41.7685 16.1401C42.581 17.2734 43.0188 18.6324 43.0206 20.0269V23.8631C43.5153 24.0382 43.9322 24.3826 44.1976 24.8352C44.463 25.2879 44.5599 25.8199 44.4712 26.3371C44.3824 26.8543 44.1138 27.3234 43.7126 27.6618C43.3115 28.0001 42.8037 28.1857 42.2789 28.1859ZM34.1198 29.6694C34.8533 29.6694 35.5704 29.4519 36.1803 29.0444C36.7901 28.6369 37.2655 28.0577 37.5462 27.38C37.8269 26.7023 37.9003 25.9566 37.7572 25.2372C37.6141 24.5178 37.2609 23.857 36.7423 23.3383C36.2236 22.8196 35.5628 22.4664 34.8434 22.3233C34.1239 22.1802 33.3782 22.2537 32.7006 22.5344C32.0229 22.8151 31.4437 23.2904 31.0362 23.9003C30.6287 24.5102 30.4111 25.2272 30.4111 25.9607C30.4123 26.944 30.8033 27.8867 31.4986 28.5819C32.1939 29.2772 33.1366 29.6683 34.1198 29.6694ZM11.126 29.6694C11.8595 29.6694 12.5766 29.4519 13.1865 29.0444C13.7963 28.6369 14.2717 28.0577 14.5524 27.38C14.8331 26.7023 14.9065 25.9566 14.7634 25.2372C14.6203 24.5178 14.2671 23.857 13.7485 23.3383C13.2298 22.8196 12.569 22.4664 11.8496 22.3233C11.1301 22.1802 10.3845 22.2537 9.70678 22.5344C9.02911 22.8151 8.44989 23.2904 8.04238 23.9003C7.63486 24.5102 7.41735 25.2272 7.41735 25.9607C7.41846 26.944 7.80955 27.8867 8.50482 28.5819C9.20009 29.2772 10.1428 29.6683 11.126 29.6694ZM1.48347 26.7025H5.98775C5.91593 26.2106 5.91593 25.7109 5.98775 25.219H1.48347V26.7025ZM1.48347 23.7355H2.96694V22.2521H1.48347V23.7355ZM26.7025 1.48347H1.48347V16.3182H26.7025V1.48347ZM26.7025 17.8016H1.48347V20.7686H3.70868C3.9054 20.7686 4.09406 20.8467 4.23316 20.9858C4.37227 21.1249 4.45041 21.3136 4.45041 21.5103V23.7355H6.43585C6.85671 22.8478 7.52086 22.0978 8.35111 21.5726C9.18135 21.0473 10.1436 20.7685 11.126 20.7685C12.1085 20.7685 13.0707 21.0473 13.901 21.5726C14.7312 22.0978 15.3954 22.8478 15.8162 23.7355H26.7025V17.8016ZM16.2643 25.219C16.3361 25.7109 16.3361 26.2106 16.2643 26.7025H28.9815C28.9097 26.2106 28.9097 25.7109 28.9815 25.219H16.2643ZM35.1461 7.41735H31.1529V10.3843H35.9954L35.1461 7.41735ZM36.42 11.8678H30.4111C30.2144 11.8678 30.0258 11.7896 29.8867 11.6505C29.7476 11.5114 29.6694 11.3228 29.6694 11.126V6.67562C29.6694 6.4789 29.7476 6.29023 29.8867 6.15113C30.0258 6.01203 30.2144 5.93388 30.4111 5.93388H34.7153C34.5609 5.50194 34.2774 5.12793 33.9032 4.86257C33.529 4.5972 33.0823 4.45332 32.6236 4.45041H28.1859V13.3512H36.345C36.5154 13.3512 36.6835 13.3598 36.8507 13.3724L36.42 11.8678ZM41.4833 19.2851H40.0537V20.7686H41.5372C41.5372 20.7686 41.5182 19.5275 41.4833 19.2851ZM41.5372 22.2521H39.312C39.1153 22.2521 38.9266 22.1739 38.7875 22.0348C38.6484 21.8957 38.5702 21.707 38.5702 21.5103V18.5434C38.5702 18.3467 38.6484 18.158 38.7875 18.0189C38.9266 17.8798 39.1153 17.8016 39.312 17.8016H41.0352C40.6136 16.9145 39.9492 16.165 39.1192 15.6399C38.2891 15.1148 37.3272 14.8357 36.345 14.8347H28.1859V23.7355H29.4296C29.8505 22.8478 30.5146 22.0978 31.3449 21.5726C32.1751 21.0473 33.1374 20.7685 34.1198 20.7685C35.1022 20.7685 36.0645 21.0473 36.8948 21.5726C37.725 22.0978 38.3891 22.8478 38.81 23.7355H41.5372V22.2521ZM42.2789 25.219H39.2581C39.3299 25.7109 39.3299 26.2106 39.2581 26.7025H42.2789C42.4756 26.7025 42.6643 26.6243 42.8034 26.4852C42.9425 26.3461 43.0206 26.1575 43.0206 25.9607C43.0206 25.764 42.9425 25.5754 42.8034 25.4363C42.6643 25.2971 42.4756 25.219 42.2789 25.219Z" fill="#F17547"/>
<path d="M34.1198 23.7344C34.5599 23.7344 34.9901 23.8649 35.3561 24.1094C35.722 24.3539 36.0072 24.7014 36.1756 25.108C36.3441 25.5146 36.3881 25.962 36.3023 26.3937C36.2164 26.8253 36.0045 27.2218 35.6933 27.533C35.3821 27.8442 34.9856 28.0562 34.5539 28.142C34.1223 28.2279 33.6749 28.1838 33.2683 28.0154C32.8617 27.847 32.5141 27.5618 32.2696 27.1958C32.0251 26.8299 31.8946 26.3997 31.8946 25.9596C31.8953 25.3696 32.1299 24.804 32.5471 24.3869C32.9642 23.9697 33.5299 23.735 34.1198 23.7344ZM34.1198 26.7013C34.2665 26.7013 34.4099 26.6578 34.5319 26.5763C34.6539 26.4948 34.7489 26.379 34.8051 26.2434C34.8612 26.1079 34.8759 25.9588 34.8473 25.8149C34.8187 25.671 34.748 25.5388 34.6443 25.4351C34.5406 25.3314 34.4084 25.2607 34.2645 25.2321C34.1206 25.2035 33.9715 25.2182 33.836 25.2743C33.7004 25.3304 33.5846 25.4255 33.5031 25.5475C33.4216 25.6695 33.3781 25.8129 33.3781 25.9596C33.3783 26.1562 33.4565 26.3448 33.5956 26.4838C33.7346 26.6229 33.9232 26.7011 34.1198 26.7013Z" fill="#F17547"/>
<path d="M11.126 23.7344C11.5661 23.7344 11.9964 23.8649 12.3623 24.1094C12.7282 24.3539 13.0134 24.7014 13.1819 25.108C13.3503 25.5146 13.3943 25.962 13.3085 26.3937C13.2226 26.8253 13.0107 27.2218 12.6995 27.533C12.3883 27.8442 11.9918 28.0562 11.5601 28.142C11.1285 28.2279 10.6811 28.1838 10.2745 28.0154C9.86788 27.847 9.52035 27.5618 9.27584 27.1958C9.03133 26.8299 8.90083 26.3997 8.90083 25.9596C8.90149 25.3696 9.13614 24.804 9.5533 24.3869C9.97047 23.9697 10.5361 23.735 11.126 23.7344ZM11.126 26.7013C11.2727 26.7013 11.4161 26.6578 11.5381 26.5763C11.6601 26.4948 11.7552 26.379 11.8113 26.2434C11.8674 26.1079 11.8821 25.9588 11.8535 25.8149C11.8249 25.671 11.7543 25.5388 11.6505 25.4351C11.5468 25.3314 11.4146 25.2607 11.2707 25.2321C11.1269 25.2035 10.9777 25.2182 10.8422 25.2743C10.7066 25.3304 10.5908 25.4255 10.5093 25.5475C10.4278 25.6695 10.3843 25.8129 10.3843 25.9596C10.3845 26.1562 10.4627 26.3448 10.6018 26.4838C10.7408 26.6229 10.9294 26.7011 11.126 26.7013Z" fill="#F17547"/>
<path d="M14.093 4.44922C14.2897 4.44922 14.4784 4.52737 14.6175 4.66647C14.7566 4.80557 14.8348 4.99423 14.8348 5.19095V12.6083C14.8348 12.805 14.7566 12.9937 14.6175 13.1328C14.4784 13.2719 14.2897 13.35 14.093 13.35C13.8963 13.35 13.7076 13.2719 13.5685 13.1328C13.4294 12.9937 13.3513 12.805 13.3513 12.6083V5.19095C13.3513 4.99423 13.4294 4.80557 13.5685 4.66647C13.7076 4.52737 13.8963 4.44922 14.093 4.44922Z" fill="#F17547"/>
<path d="M18.5434 4.44922C18.7401 4.44922 18.9288 4.52737 19.0679 4.66647C19.207 4.80557 19.2851 4.99423 19.2851 5.19095V12.6083C19.2851 12.805 19.207 12.9937 19.0679 13.1328C18.9288 13.2719 18.7401 13.35 18.5434 13.35C18.3467 13.35 18.158 13.2719 18.0189 13.1328C17.8798 12.9937 17.8017 12.805 17.8017 12.6083V5.19095C17.8017 4.99423 17.8798 4.80557 18.0189 4.66647C18.158 4.52737 18.3467 4.44922 18.5434 4.44922Z" fill="#F17547"/>
<path d="M22.9938 4.44922C23.1905 4.44922 23.3792 4.52737 23.5183 4.66647C23.6574 4.80557 23.7355 4.99423 23.7355 5.19095V12.6083C23.7355 12.805 23.6574 12.9937 23.5183 13.1328C23.3792 13.2719 23.1905 13.35 22.9938 13.35C22.7971 13.35 22.6084 13.2719 22.4693 13.1328C22.3302 12.9937 22.2521 12.805 22.2521 12.6083V5.19095C22.2521 4.99423 22.3302 4.80557 22.4693 4.66647C22.6084 4.52737 22.7971 4.44922 22.9938 4.44922Z" fill="#F17547"/>
<path d="M9.64264 4.44922C9.83936 4.44922 10.028 4.52737 10.1671 4.66647C10.3062 4.80557 10.3844 4.99423 10.3844 5.19095V12.6083C10.3844 12.805 10.3062 12.9937 10.1671 13.1328C10.028 13.2719 9.83936 13.35 9.64264 13.35C9.44592 13.35 9.25726 13.2719 9.11815 13.1328C8.97905 12.9937 8.90091 12.805 8.90091 12.6083V5.19095C8.90091 4.99423 8.97905 4.80557 9.11815 4.66647C9.25726 4.52737 9.44592 4.44922 9.64264 4.44922Z" fill="#F17547"/>
<path d="M5.19226 4.44922C5.38898 4.44922 5.57764 4.52737 5.71674 4.66647C5.85584 4.80557 5.93399 4.99423 5.93399 5.19095V12.6083C5.93399 12.805 5.85584 12.9937 5.71674 13.1328C5.57764 13.2719 5.38898 13.35 5.19226 13.35C4.99553 13.35 4.80687 13.2719 4.66777 13.1328C4.52867 12.9937 4.45052 12.805 4.45052 12.6083V5.19095C4.45052 4.99423 4.52867 4.80557 4.66777 4.66647C4.80687 4.52737 4.99553 4.44922 5.19226 4.44922Z" fill="#F17547"/>
</svg>
