<svg width="42" height="43" viewBox="0 0 42 43" fill="none" xmlns="http://www.w3.org/2000/svg">
<path d="M26.8569 21.9105C26.3569 21.9107 25.8731 22.0876 25.4908 22.4099C25.1086 22.7323 24.8526 23.1794 24.768 23.6722C24.6835 24.165 24.7758 24.6718 25.0287 25.1032C25.2816 25.5345 25.6788 25.8626 26.1502 26.0295V28.2713C26.1502 29.7709 25.5545 31.209 24.4941 32.2694C23.4338 33.3297 21.9956 33.9254 20.4961 33.9254C18.9965 33.9254 17.5584 33.3297 16.498 32.2694C15.4377 31.209 14.842 29.7709 14.842 28.2713V26.0295C15.3135 25.8627 15.711 25.5347 15.9641 25.1033C16.2171 24.6719 16.3096 24.1649 16.225 23.6719C16.1404 23.1789 15.8843 22.7317 15.5019 22.4094C15.1195 22.087 14.6354 21.9102 14.1352 21.9102C13.6351 21.9102 13.151 22.087 12.7686 22.4094C12.3862 22.7317 12.1301 23.1789 12.0455 23.6719C11.9609 24.1649 12.0533 24.6719 12.3064 25.1033C12.5595 25.5347 12.9569 25.8627 13.4285 26.0295V28.2713C13.4285 30.1458 14.1731 31.9434 15.4985 33.2689C16.824 34.5943 18.6216 35.3389 20.4961 35.3389C22.3705 35.3389 24.1682 34.5943 25.4936 33.2689C26.8191 31.9434 27.5637 30.1458 27.5637 28.2713V26.0295C28.035 25.8626 28.4322 25.5345 28.6851 25.1032C28.938 24.6718 29.0304 24.165 28.9458 23.6722C28.8613 23.1794 28.6053 22.7323 28.223 22.4099C27.8408 22.0876 27.3569 21.9107 26.8569 21.9105ZM14.1352 23.324C14.275 23.324 14.4117 23.3654 14.5279 23.4431C14.6441 23.5208 14.7347 23.6311 14.7882 23.7603C14.8417 23.8894 14.8557 24.0315 14.8284 24.1686C14.8011 24.3057 14.7338 24.4317 14.635 24.5305C14.5361 24.6293 14.4102 24.6967 14.2731 24.7239C14.136 24.7512 13.9939 24.7372 13.8648 24.6837C13.7356 24.6302 13.6252 24.5396 13.5476 24.4234C13.4699 24.3072 13.4285 24.1705 13.4285 24.0307C13.4287 23.8434 13.5032 23.6637 13.6357 23.5312C13.7682 23.3987 13.9478 23.3242 14.1352 23.324ZM26.8569 24.7375C26.7171 24.7375 26.5805 24.6961 26.4643 24.6184C26.348 24.5407 26.2575 24.4304 26.204 24.3012C26.1505 24.1721 26.1365 24.03 26.1637 23.8929C26.191 23.7558 26.2583 23.6298 26.3572 23.531C26.456 23.4321 26.5819 23.3648 26.719 23.3376C26.8561 23.3103 26.9982 23.3243 27.1274 23.3778C27.2565 23.4313 27.3669 23.5219 27.4446 23.6381C27.5222 23.7543 27.5637 23.891 27.5637 24.0307C27.5635 24.2181 27.4889 24.3978 27.3564 24.5303C27.224 24.6628 27.0443 24.7373 26.8569 24.7375Z" fill="#F17547"/>
<path d="M38.1651 17.668H33.6701C33.6965 17.5447 33.6894 17.4166 33.6495 17.2969L32.5894 14.1342L34.8891 16.5503C34.9542 16.6187 35.0322 16.6733 35.1187 16.711C35.2052 16.7487 35.2983 16.7687 35.3927 16.7698C35.4872 16.7718 35.5811 16.7543 35.6686 16.7186C35.756 16.6828 35.8353 16.6296 35.9014 16.562L37.9585 14.4981C38.0908 14.3653 38.1649 14.1854 38.1646 13.998C38.1643 13.8106 38.0896 13.631 37.9568 13.4986L31.7656 7.32729C31.6539 7.21601 31.5083 7.14525 31.3518 7.12625C31.1954 7.10725 31.037 7.1411 30.902 7.22242L26.6638 9.77471C26.5205 9.86103 26.4124 9.99542 26.3588 10.154C26.3053 10.3125 26.3097 10.4849 26.3713 10.6405L29.1531 17.668H26.4498C26.4876 17.0233 26.612 16.3866 26.8196 15.7751L25.4813 15.3201C25.2237 16.0781 25.073 16.8684 25.0336 17.668H21.8458C21.7195 16.9738 21.4097 16.3262 20.9484 15.7923L19.8788 16.7163C20.1174 16.9927 20.2934 17.3173 20.395 17.668H15.5263C15.5707 17.5711 15.5925 17.4654 15.5901 17.3588L15.5695 16.5792L15.6049 16.5827C16.8547 16.7068 18.1132 16.457 19.2208 15.865L20.8287 15.008C20.9521 14.9422 21.0531 14.8413 21.1191 14.7181C21.1851 14.5949 21.2131 14.4549 21.1995 14.3158C21.1859 14.1766 21.1314 14.0447 21.0428 13.9365C20.9542 13.8284 20.8356 13.749 20.7019 13.7083L15.2447 12.0474L14.052 9.81129C14.0084 9.72939 13.949 9.65689 13.8773 9.59795C13.8056 9.539 13.723 9.49475 13.6342 9.46773C13.5454 9.4407 13.4521 9.43143 13.3598 9.44045C13.2674 9.44947 13.1777 9.47659 13.0958 9.52028L9.35419 11.5158C9.18882 11.604 9.06525 11.7543 9.01068 11.9336C8.9561 12.1129 8.97499 12.3066 9.06318 12.472L10.3935 14.9665L11.8348 17.668H8.48117C8.29372 17.668 8.11396 17.7425 7.98141 17.875C7.84887 18.0075 7.77441 18.1873 7.77441 18.3748V25.7115L6.48139 24.031C6.38332 23.9035 6.24474 23.8133 6.0885 23.7753C5.93227 23.7372 5.76773 23.7536 5.62205 23.8217L3.53384 24.7974V23.6558C3.53107 22.8367 3.75786 22.0332 4.18849 21.3364C4.61912 20.6396 5.23636 20.0775 5.97022 19.7136L5.33802 18.4494C4.3688 18.9299 3.55361 19.6724 2.98488 20.5926C2.41615 21.5128 2.11664 22.574 2.12032 23.6558V25.4424H2.15371L0.499627 26.2153C0.353954 26.2834 0.235849 26.3991 0.164808 26.5433C0.0937667 26.6876 0.0740374 26.8518 0.108876 27.0087L1.52116 33.3696C1.54409 33.4729 1.58994 33.5698 1.65534 33.6531C1.72073 33.7363 1.804 33.8039 1.89898 33.8506C1.99397 33.8974 2.09824 33.9222 2.20411 33.9233C2.30998 33.9243 2.41473 33.9016 2.51063 33.8567L7.77441 31.3968V41.6979C7.77441 41.8853 7.84887 42.0651 7.98141 42.1976C8.11396 42.3302 8.29372 42.4046 8.48117 42.4046H32.511C32.6207 42.4046 32.7289 42.3788 32.8269 42.3294L35.3381 41.0745L37.849 42.33C37.9568 42.3839 38.0765 42.4093 38.1969 42.4039C38.3172 42.3985 38.4342 42.3624 38.5367 42.2991C38.6392 42.2357 38.7237 42.1473 38.7824 42.042C38.8411 41.9368 38.8719 41.8183 38.8719 41.6979V18.3748C38.8719 18.1873 38.7974 18.0075 38.6649 17.875C38.5323 17.7425 38.3526 17.668 38.1651 17.668ZM18.556 14.6174C17.6944 15.0778 16.7156 15.2721 15.7435 15.1757L14.9112 15.0938C14.8115 15.084 14.7108 15.0955 14.6158 15.1276C14.5209 15.1596 14.4339 15.2115 14.3605 15.2798C14.2872 15.3481 14.2292 15.4312 14.1904 15.5236C14.1516 15.616 14.1329 15.7156 14.1355 15.8157L14.1656 16.9589L13.3038 17.4183L11.9734 14.9238L12.0617 14.8768L14.8332 13.3989L18.658 14.563L18.556 14.6174ZM13.1375 11.0993L13.8026 12.3465L13.7755 12.3609L11.3082 13.6768L10.6431 12.4297L13.1375 11.0993ZM31.1585 8.71793L36.4592 14.001L35.4132 15.0504L31.4207 10.8566C31.3098 10.7401 31.1625 10.6649 31.0032 10.6434C30.8438 10.6219 30.6819 10.6554 30.5441 10.7384C30.4064 10.8214 30.301 10.9488 30.2455 11.0997C30.1899 11.2507 30.1875 11.416 30.2386 11.5685L32.0787 17.0584L30.6099 17.508L27.906 10.6768L31.1585 8.71793ZM1.61172 27.2558L5.70713 25.3423L8.79753 29.359L7.67484 29.8836L6.77699 27.9627L5.49599 28.561L6.39357 30.482L5.11345 31.0804L4.21578 29.1595L2.93477 29.7579L3.83245 31.6788L2.71011 32.2034L1.61172 27.2558ZM31.8043 40.9911H9.18793V30.7366L10.1939 30.2665C10.2898 30.2217 10.3744 30.156 10.4415 30.0741C10.5085 29.9922 10.5564 29.8963 10.5814 29.7935C10.6065 29.6907 10.6081 29.5835 10.5862 29.48C10.5643 29.3765 10.5194 29.2791 10.4549 29.1953L9.18793 27.5486V19.0815H31.8043V40.9911ZM37.4584 40.5543L35.6542 39.6522C35.556 39.6032 35.4478 39.5776 35.3381 39.5776C35.2284 39.5776 35.1201 39.6032 35.022 39.6522L33.2178 40.5543V19.0815H37.4584V40.5543Z" fill="#F17547"/>
<path d="M0.706761 10.6014H7.77437C7.96182 10.6014 8.14158 10.527 8.27413 10.3944C8.40667 10.2619 8.48113 10.0821 8.48113 9.89465V7.77437C8.48059 7.03043 8.28439 6.29971 7.91224 5.65555C7.54008 5.01138 7.00506 4.47642 6.36085 4.10434V2.12028C6.36085 1.55795 6.13746 1.01865 5.73983 0.621017C5.3422 0.223386 4.8029 0 4.24057 0C3.67823 0 3.13893 0.223386 2.7413 0.621017C2.34367 1.01865 2.12028 1.55795 2.12028 2.12028V4.10434C1.47607 4.47642 0.941048 5.01138 0.568895 5.65555C0.196741 6.29971 0.000547087 7.03043 0 7.77437V9.89465C0 10.0821 0.0744621 10.2619 0.207005 10.3944C0.339549 10.527 0.519316 10.6014 0.706761 10.6014ZM3.53381 2.12028C3.53381 1.93284 3.60827 1.75307 3.74081 1.62053C3.87335 1.48798 4.05312 1.41352 4.24057 1.41352C4.42801 1.41352 4.60778 1.48798 4.74032 1.62053C4.87287 1.75307 4.94733 1.93284 4.94733 2.12028V3.59379C4.47955 3.51381 4.00159 3.51381 3.53381 3.59379V2.12028ZM1.41352 7.77437C1.41311 7.08662 1.66452 6.42252 2.12028 5.90746V7.77437H3.53381V5.03682C3.99743 4.91751 4.48371 4.91751 4.94733 5.03682V7.77437H6.36085V5.90746C6.81661 6.42252 7.06802 7.08662 7.06761 7.77437V9.18789H1.41352V7.77437Z" fill="#F17547"/>
<path d="M14.2756 7.08544C14.3243 7.16978 14.3899 7.24315 14.4683 7.30094C14.5467 7.35873 14.6362 7.39969 14.7312 7.42126C14.8261 7.44283 14.9245 7.44454 15.0202 7.42627C15.1159 7.40801 15.2067 7.37018 15.2871 7.31514L16.3216 6.60573L17.2206 9.73933C17.2461 9.82859 17.2889 9.91195 17.3467 9.98463C17.4045 10.0573 17.476 10.1179 17.5572 10.1629C17.6384 10.2079 17.7277 10.2364 17.8199 10.2469C17.9122 10.2573 18.0056 10.2495 18.0948 10.2238L23.5297 8.6647C23.6189 8.6391 23.7022 8.59617 23.7749 8.53835C23.8475 8.48054 23.9081 8.40897 23.9531 8.32775C23.9981 8.24653 24.0266 8.15724 24.0371 8.06499C24.0475 7.97273 24.0397 7.87932 24.0141 7.79008L23.1152 4.65648L24.3685 4.70949C24.4658 4.71361 24.5629 4.69758 24.6537 4.66241C24.7445 4.62724 24.8271 4.57368 24.8962 4.5051C24.9653 4.43652 25.0195 4.35439 25.0554 4.26386C25.0913 4.17334 25.1081 4.07637 25.1048 3.97905L25.0045 1.06667C24.9986 0.895887 24.931 0.733029 24.8143 0.608237C24.6976 0.483446 24.5396 0.405174 24.3696 0.38791L20.583 0.00360853C20.469 -0.00795996 20.3538 0.00838467 20.2475 0.0512329C20.1412 0.0940812 20.0469 0.162147 19.9727 0.249561L19.5435 0.755602C19.2733 1.07557 18.9141 1.30809 18.5116 1.42367C18.1091 1.53926 17.6812 1.53271 17.2824 1.40485L16.6502 1.20325C16.541 1.16833 16.4249 1.16054 16.312 1.18055C16.1991 1.20056 16.0928 1.24777 16.0022 1.3181L12.9956 3.65103C12.8605 3.75579 12.768 3.90594 12.7352 4.07367C12.7024 4.24139 12.7315 4.41533 12.817 4.56328L14.2756 7.08544ZM16.575 2.66218L16.8531 2.75052C17.5176 2.96367 18.2305 2.97476 18.9013 2.78238C19.5722 2.59 20.1708 2.20282 20.6214 1.66989L20.8102 1.44734L23.6131 1.73182L23.6661 3.26478L22.1956 3.20241C22.0837 3.19767 21.9723 3.21959 21.8705 3.26636C21.7687 3.31313 21.6796 3.38342 21.6103 3.47142C21.541 3.55943 21.4937 3.66263 21.4721 3.77253C21.4506 3.88243 21.4554 3.99588 21.4863 4.10353L22.4605 7.50066L18.3846 8.66982L17.4098 5.27304C17.3789 5.16541 17.3229 5.06666 17.2464 4.98492C17.1699 4.90318 17.075 4.8408 16.9696 4.80291C16.8643 4.76502 16.7514 4.7527 16.6404 4.76698C16.5293 4.78126 16.4232 4.82172 16.3309 4.88503L15.1171 5.71742L14.3491 4.38959L16.575 2.66218Z" fill="#F17547"/>
<path d="M41.4234 6.14674L39.4329 5.41665L39.6763 4.75318C39.8362 4.31751 39.9086 3.85462 39.8896 3.39093C39.8706 2.92725 39.7604 2.47185 39.5654 2.05074C39.3704 1.62964 39.0943 1.25107 38.753 0.936646C38.4116 0.622226 38.0117 0.378115 37.5761 0.21825C37.1404 0.0583847 36.6775 -0.0141031 36.2138 0.00492506C35.7501 0.0239532 35.2947 0.134125 34.8736 0.329149C34.0232 0.723018 33.364 1.4386 33.0411 2.31848L32.5543 3.64551C32.5222 3.73264 32.5076 3.82523 32.5114 3.91799C32.5152 4.01075 32.5372 4.10186 32.5762 4.1861C32.6152 4.27034 32.6705 4.34605 32.7388 4.40892C32.8071 4.47178 32.8872 4.52056 32.9743 4.55246L40.9364 7.47368C41.0238 7.50655 41.1167 7.5218 41.21 7.51855C41.3032 7.51531 41.3949 7.49363 41.4797 7.45477C41.5646 7.41592 41.6409 7.36065 41.7042 7.29215C41.7676 7.22366 41.8167 7.1433 41.8489 7.05571C41.881 6.96812 41.8955 6.87502 41.8915 6.78181C41.8875 6.68859 41.8651 6.59709 41.8255 6.51259C41.7859 6.42808 41.73 6.35225 41.661 6.28945C41.592 6.22666 41.5113 6.17816 41.4234 6.14674ZM37.089 1.54511C37.3504 1.64101 37.5904 1.78747 37.7952 1.97612C38 2.16477 38.1657 2.39192 38.2827 2.64459C38.3997 2.89727 38.4659 3.17052 38.4773 3.44875C38.4887 3.72697 38.4452 4.00472 38.3493 4.26614L38.1059 4.9297L34.3588 3.55469L34.1248 3.46882L34.3682 2.80535C34.5624 2.27784 34.9579 1.8489 35.468 1.61265C35.9781 1.37639 36.561 1.3521 37.089 1.54511Z" fill="#F17547"/>
<path d="M24.7367 14.1347V12.7212C24.7353 12.1206 24.5635 11.5327 24.2414 11.0258C23.9192 10.5189 23.4599 10.1138 22.9168 9.85742L22.316 11.1372C22.6166 11.2789 22.8707 11.503 23.049 11.7834C23.2272 12.0638 23.3223 12.389 23.3232 12.7212V14.1347H24.7367Z" fill="#F17547"/>
<path d="M37.3227 7.00194L36.0607 6.36523C35.6693 7.14046 35.0809 7.79918 34.3547 8.27534L35.1295 9.45767C36.0631 8.84541 36.8194 7.99856 37.3227 7.00194Z" fill="#F17547"/>
<path d="M4.65897 11.7031L3.39043 12.3268C3.84696 13.252 4.55289 14.0311 5.4286 14.5765C6.3043 15.1218 7.31496 15.4116 8.34659 15.4133C8.39721 15.4133 8.44819 15.4126 8.49898 15.4111L8.45985 13.9982C7.6732 14.0189 6.89709 13.8138 6.22345 13.407C5.54981 13.0003 5.00688 12.409 4.65897 11.7031Z" fill="#F17547"/>
<path d="M36.0448 36.752H34.6313V38.1655H36.0448V36.752Z" fill="#F17547"/>
<path d="M36.0448 33.9238H34.6313V35.3374H36.0448V33.9238Z" fill="#F17547"/>
<path d="M36.0448 29.6836H34.6313V32.5106H36.0448V29.6836Z" fill="#F17547"/>
</svg>
